<svg xmlns="http://www.w3.org/2000/svg" viewBox="0 0 280 580" width="280" height="580" font-family="-apple-system, system-ui, sans-serif">
  <defs>
    <radialGradient id="ws" cx="85%" cy="90%" r="70%"><stop offset="0%" stop-color="#2E7D52" stop-opacity=".22"/><stop offset="100%" stop-color="#2E7D52" stop-opacity="0"/></radialGradient>
    <linearGradient id="cw2" x1="0" y1="0" x2="1" y2="1"><stop offset="0%" stop-color="#2E7D52"/><stop offset="50%" stop-color="#14233A"/><stop offset="100%" stop-color="#1A2E47"/></linearGradient>
  </defs>
  <rect width="280" height="580" rx="36" fill="#0a121b"/>
  <rect x="6" y="6" width="268" height="568" rx="30" fill="#1C2B3A"/>
  <rect x="6" y="6" width="268" height="568" rx="30" fill="url(#ws)"/>
  <text x="24" y="30" fill="#F7FAF8" font-size="10" font-weight="600">9:41</text>
  <rect x="256" y="20" width="14" height="8" rx="2" stroke="#F7FAF8" stroke-width="1" fill="none"/><rect x="258" y="22" width="9" height="4" fill="#F7FAF8"/>

  <text x="20" y="68" fill="#F7FAF8" font-size="20" font-weight="800" letter-spacing="-.5">Wallet</text>
  <text x="20" y="84" fill="#F7FAF8" fill-opacity=".6" font-size="10">Card 2 of 4 · Mastercard</text>
  <rect x="226" y="50" width="34" height="34" rx="17" fill="#2E7D52" fill-opacity=".22" stroke="#2E7D52"/>
  <text x="243" y="74" fill="#2E7D52" font-size="20" font-weight="700">+</text>

  <!-- Mid-swipe: front card slid right ~60px + slight rotation -->
  <g transform="translate(50,118)" opacity=".5"><rect width="180" height="14" rx="8" fill="url(#cw2)"/></g>
  <g transform="translate(45,128)" opacity=".75"><rect width="190" height="14" rx="8" fill="url(#cw2)"/></g>
  <g transform="translate(98,140) rotate(8)">
    <rect width="204" height="128" rx="14" fill="url(#cw2)" stroke="#2E7D52" stroke-opacity=".5"/>
    <text x="14" y="22" fill="#F7FAF8" fill-opacity=".7" font-size="6" font-weight="700" letter-spacing="1.4">FINTINO BANK</text>
    <text x="14" y="44" fill="#C9A84C" font-size="18" font-weight="800">$38,210.00</text>
    <rect x="160" y="14" width="32" height="22" rx="3" fill="#C9A84C"/>
    <text x="14" y="84" fill="#F7FAF8" fill-opacity=".7" font-size="7" letter-spacing="2.4">•••• •••• •••• 2840</text>
    <text x="14" y="108" fill="#F7FAF8" font-size="7" font-weight="700">TINO WELL</text>
    <!-- Mastercard interlocking circles -->
    <circle cx="170" cy="106" r="9" fill="#EB001B"/>
    <circle cx="184" cy="106" r="9" fill="#F79E1B" opacity=".92"/>
  </g>

  <!-- Hint text -->
  <text x="140" y="296" fill="#F7FAF8" fill-opacity=".5" font-size="10" text-anchor="middle">← swipe to browse →</text>

  <!-- Rest dimmed (during swipe) -->
  <g opacity=".5">
    <rect x="16" y="312" width="248" height="58" rx="18" fill="#264c3f" fill-opacity=".18" stroke="#2E7D52" stroke-opacity=".22"/>
    <text x="32" y="332" fill="#F7FAF8" fill-opacity=".62" font-size="9" font-weight="700" letter-spacing="1.2">SAVINGS · •2840</text>
    <text x="32" y="357" fill="#F7FAF8" font-size="22" font-weight="800" letter-spacing="-.6">$38,210</text><text x="146" y="357" fill="#F7FAF8" fill-opacity=".6" font-size="14" font-weight="700">.00</text>
  </g>

  <g transform="translate(16,384)" opacity=".4">
    <rect width="58" height="56" rx="14" fill="#264c3f" fill-opacity=".18" stroke="#2E7D52" stroke-opacity=".22"/>
    <rect x="63" width="58" height="56" rx="14" fill="#264c3f" fill-opacity=".18" stroke="#2E7D52" stroke-opacity=".22"/>
    <rect x="126" width="58" height="56" rx="14" fill="#264c3f" fill-opacity=".18" stroke="#2E7D52" stroke-opacity=".22"/>
    <rect x="189" width="58" height="56" rx="14" fill="#264c3f" fill-opacity=".18" stroke="#2E7D52" stroke-opacity=".22"/>
  </g>
</svg>
